<?xml version="1.0" encoding="utf-8" standalone="no" ?>
<svg viewBox="0 0 22 18" xmlns="http://www.w3.org/2000/svg">
<path fill="#45f" d="
  M 11 0
  c +2.0    0 +3.0 +2.0 +3.0 +5.0
  s -2.0 +3.0 -3.0 +3.0
  s -3.0    0 -3.0 -3.0
  s +1.0 -5.0 +3.0 -5.0
  z

  M 11 18
  c +2.0    0 +3.0 -2.0 +3.0 -5.0
  s -2.0 -3.0 -3.0 -3.0
  s -3.0    0 -3.0 +3.0
  s +1.0 +5.0 +3.0 +5.0
  z

  M 0 10
  c    0 -3.5 +1.5 -7.0 +3.5 -7.0
  s +2.5 +3.5 +2.5 +7.0
  s -0.5 +6.0 -2.5 +6.0
  s -3.5 -2.5 -3.5 -6.0
  z

  M 22 10
  c    0 -3.5 -1.5 -7.0 -3.5 -7.0
  s -2.5 +3.5 -2.5 +7.0
  s +0.5 +6.0 +2.5 +6.0
  s +3.5 -2.5 +3.5 -6.0
  z
" />
</svg>
