<?xml version="1.0" encoding="utf-8" standalone="no" ?>
<svg viewBox="0 0 144 64" xmlns="http://www.w3.org/2000/svg">
<path fill="#45f" d="
  M 0 10
    c 0 -4.75 0 -7 +1.5 -8.5 s +3.75 -1.5 +8.5 -1.5
    h +10
    c +4.75 0 +7 0 +8.5 +1.5 s +1.5 +3.75 +1.5 +8.5
    v +44
    c 0 +4.75 0 +7 -1.5 +8.5 s -2.75 +1.5 -8.5 +1.5
    h -10
    c -4.75 0 -7 0 -8.5 -1.5 s -1.5 -3.75 -1.5 -8.5
  z
  M 40 10
    c 0 -4.75 0 -7 +1.5 -8.5 s +3.75 -1.5 +8.5 -1.5
    h +10
    c +4.75 0 +7 0 +8.5 +1.5 s +1.5 +3.75 +1.5 +8.5
    v +15
    c 0 +2 0 +3 -0.5 +3.5 s -1.5 +0.5 -3.5 +0.5
    h -22
    c -2 0 -3 0 -3.5 -0.5 s -0.5 -1.5 -0.5 -3.5
  z
  M 40 39
    c 0 -2 0 -3 +0.5 -3.5 s +1.5 -0.5 +3.5 -0.5
    h +22
    c +2 0 +3 0 +3.5 +0.5 s +0.5 +1.5 +0.5 +3.5
    v +15
    c 0 +4.75 0 +7 -1.5 +8.5 s -3.75 +1.5 -8.5 +1.5
    h -10
    c -4.75 0 -7 0 -8.5 -1.5 s -1.5 -3.75 -1.5 -8.5
  z
  M 80 10
    c 0 -4.75 0 -7 +1.5 -8.5 s +3.75 -1.5 +8.5 -1.5
    h +44
    c +4.75 0 +7 0 +8.5 +1.5 s +1.5 +3.75 +1.5 +8.5
    v +44
    c 0 +4.75 0 +7 -1.5 +8.5 s -3.75 +1.5 -8.5 +1.5
    h -44
    c -4.75 0 -7 0 -8.5 -1.5 s -1.5 -3.75 -1.5 -8.5
  z
" />
</svg>
