<?xml version="1.0" encoding="utf-8" standalone="no" ?>
<svg width="176px" height="176px" viewBox="-88 -88 176 176" version="1.1" xmlns="http://www.w3.org/2000/svg">
  <defs>
    <!-- wing: 36*80 -->
    <path id="wing" d="
      M -18,-6
      A 34,34 0 0 1 +16,-40
      A 2,2   0 0 1 +18,-38
      V +38
      A 2,2   0 0 1 +16,+40
      H 0
      A 18,18 0 0 1 -18,+22
      V -6
    " />

    <!-- spine: 36*58 -->
    <path id="spine" d="
      M -18,-27
      A 2,2   0 0 1 -16,-29
      H 0
      A 18,18 0 0 1 +18,-11
      V +27
      A 2,2   0 0 1 +16,+29
      H -16
      A 2,2   0 0 1 -18,+27
      V -27
    " />

    <!-- Silhouette -->
    <clipPath id="silhouette" transform="rotate(-45)">
      <use href="#wing"  x="-44" y="-22" />
      <use href="#wing"  x="-44" y="-22" transform="rotate(180)" />
      <use href="#spine" y="-33" />
      <use href="#spine" y="-33" transform="rotate(180)" />
    </clipPath>

    <!-- Texture -->
    <radialGradient id="layer1" cx="115%" cy="90%" r="80%">
      <stop offset="50%"  stop-color="#e57" />
      <stop offset="100%" stop-color="#e57" stop-opacity="0" />
    </radialGradient>

    <radialGradient id="layer2" fx="60%" fy="80%" r="40%">
      <stop offset="20%"  stop-color="#e57" stop-opacity="0.5" />
      <stop offset="100%" stop-color="#e57" stop-opacity="0"   />
    </radialGradient>

    <radialGradient id="layer3" fx="30%" fy="10%" r="100%">
      <stop offset="0%"  stop-color="#335" stop-opacity="0.5" />
      <stop offset="30%" stop-color="#335" stop-opacity="0"   />
    </radialGradient>

    <symbol id="texture" x="-50%" y="-50%">
      <rect fill="#58f"         width="100%" height="100%" />
      <rect fill="url(#layer1)" width="100%" height="100%" />
      <rect fill="url(#layer2)" width="100%" height="100%" />
      <rect fill="url(#layer3)" width="100%" height="100%" />
    </symbol>
  </defs>

  <use href="#texture" clip-path="url(#silhouette)" />
</svg>
