<?xml version="1.0" encoding="utf-8" standalone="no" ?>
<svg width="152px" height="152px" viewBox="-76 -76 152 152" version="1.1" xmlns="http://www.w3.org/2000/svg">
  <defs>
    <!-- wing: 36*82 -->
    <path id="wing" d="
      M -18,-39
      A 2,2   0 0 1 -16,-41
      A 34,34 0 0 1 +18,-7
      V +39
      A 2,2   0 0 1 +16,+41
      A 34,34 0 0 1 -18,+7
      V -39
    " />

    <!-- spine: 36*58 -->
    <path id="spine" d="
      M -18,-11
      A 18,18 0 0 1 0,-29
      H +16
      A 2,2   0 0 1 +18,-27
      V +27
      A 2,2   0 0 1 +16,+29
      H -16
      A 2,2   0 0 1 -18,+27
      V -11
    " />

    <!-- Silhouette -->
    <clipPath id="silhouette" transform="rotate(-50)">
      <use href="#wing"  x="-44" y="21" />
      <use href="#spine" y="-33" />
      <use href="#spine" y="-33" transform="rotate(180)" />
      <use href="#wing"  x="+44" y="-21" />
    </clipPath>

    <!-- Texture -->
    <radialGradient id="layer1" cx="115%" cy="90%" r="80%">
      <stop offset="50%"  stop-color="#e57" />
      <stop offset="100%" stop-color="#e57" stop-opacity="0" />
    </radialGradient>

    <radialGradient id="layer2" fx="60%" fy="80%" r="40%">
      <stop offset="20%"  stop-color="#e57" stop-opacity="0.5" />
      <stop offset="100%" stop-color="#e57" stop-opacity="0"   />
    </radialGradient>

    <radialGradient id="layer3" fx="30%" fy="10%" r="100%">
      <stop offset="0%"  stop-color="#335" stop-opacity="0.5" />
      <stop offset="30%" stop-color="#335" stop-opacity="0"   />
    </radialGradient>

    <symbol id="texture" x="-50%" y="-50%">
      <rect fill="#58f"         width="100%" height="100%" />
      <rect fill="url(#layer1)" width="100%" height="100%" />
      <rect fill="url(#layer2)" width="100%" height="100%" />
      <rect fill="url(#layer3)" width="100%" height="100%" />
    </symbol>
  </defs>

  <use href="#texture" clip-path="url(#silhouette)" />
</svg>
